<?xml version="1.0" standalone="no"?>
<!DOCTYPE svg PUBLIC "-//W3C//DTD SVG 20010904//EN"
 "http://www.w3.org/TR/2001/REC-SVG-20010904/DTD/svg10.dtd">
<svg version="1.0" xmlns="http://www.w3.org/2000/svg"
 width="1000.000000pt" height="1000.000000pt" viewBox="0 0 1000.000000 1000.000000"
 preserveAspectRatio="xMidYMid meet">
<metadata>
Created by potrace 1.11, written by Peter Selinger 2001-2013
</metadata>
<g transform="translate(0.000000,1000.000000) scale(0.100000,-0.100000)"
fill="#000000" stroke="none">
<path d="M6663 9760 c-728 -113 -1341 -565 -1664 -1225 -104 -214 -168 -417
-205 -655 -26 -161 -26 -511 -1 -665 105 -645 456 -1195 981 -1540 349 -230
722 -348 1141 -362 816 -27 1574 395 1988 1108 125 216 213 455 263 718 36
186 44 494 19 692 -85 669 -466 1265 -1040 1624 -214 134 -491 241 -752 291
-120 23 -169 27 -373 30 -194 3 -256 0 -357 -16z"/>
<path d="M829 9611 l-39 -39 0 -4588 c0 -4585 0 -4589 20 -4622 40 -66 -67
-62 1640 -62 1707 0 1600 -4 1640 62 20 33 20 37 20 4622 l0 4588 -39 39 -39
39 -1582 0 -1582 0 -39 -39z"/>
<path d="M6765 4679 c-320 -35 -654 -148 -925 -313 -984 -601 -1349 -1862
-841 -2902 278 -567 763 -979 1371 -1162 85 -26 243 -58 355 -73 135 -17 419
-15 560 5 1000 143 1772 930 1901 1937 23 182 16 505 -15 669 -123 657 -504
1209 -1064 1542 -238 142 -483 230 -772 279 -141 23 -434 33 -570 18z"/>
</g>
</svg>
